PathFileType	4	(X/Y/Z)	D:\Share\Shared_Data\Ergonomics\Sit To Stand Pertubation\S2\Unperturbed.trc
DataRate	CameraRate	NumFrames	NumMarkers	Units	OrigDataRate	OrigDataStartFrame	OrigNumFrames	
100	100	14	18	m	100	4581	241
Frame#	Time	R_Toe			R_ASIS			R_Pelvis			V_Sacral			L_Pelvis			L_ASIS			Clavical			R_Acromium			L_Acromium			Sternum			Torso			R_Thigh_Med			R_Thigh_Lat			R_Thigh			R_Shank_Med			R_Shank_Lat			R_Shank			R_Heel			
		X1	Y1	Z1	X2	Y2	Z2	X3	Y3	Z3	X4	Y4	Z4	X5	Y5	Z5	X6	Y6	Z6	X7	Y7	Z7	X8	Y8	Z8	X9	Y9	Z9	X10	Y10	Z10	X11	Y11	Z11	X12	Y12	Z12	X13	Y13	Z13	X14	Y14	Z14	X15	Y15	Z15	X16	Y16	Z16	X17	Y17	Z17	X18	Y18	Z18	

4581	45.8	0.44137616	0.065666115	0.1500497	0.24518414	0.90519037	0.13770451	0.18280038	0.94170569	0.18175975	0.035265759	0.9599104	0.021184208	0.14792601	0.9549527	-0.15791264	0.23907294	0.92164349	-0.12904175	0.46318314	1.2511267	0.0020705369	0.39852008	1.313672	0.20804613	0.3848858	1.3293264	-0.18025412	0.43216818	1.0920668	0.0003891362	0.45384531	1.2158881	-0.11012365	0.43342908	0.48244897	0.10448521	0.4166817	0.50208337	0.20080223	0.38819321	0.69238098	0.16767291	0.30816293	0.10737209	0.11142622	0.28658875	0.099233788	0.20419089	0.37354901	0.35583725	0.22554669	0.20357755	0.058409729	0.15223083
4582	45.81	0.44135666	0.065725533	0.15023009	0.24875208	0.91031482	0.13793614	0.18657083	0.94624329	0.18204305	0.039067902	0.96462152	0.021521439	0.15133728	0.95948224	-0.15762361	0.24270004	0.9268584	-0.12875726	0.46388934	1.2588313	0.0022534223	0.39878186	1.320809	0.20833186	0.38459732	1.3362676	-0.17997414	0.43425327	1.0994664	0.0005652014	0.45472684	1.2234424	-0.11001241	0.43219733	0.48288828	0.10467884	0.4155798	0.5026058	0.20082965	0.38993005	0.69300269	0.16797374	0.30827002	0.10737648	0.11137309	0.2866445	0.099325157	0.20405821	0.37257852	0.35627182	0.22564206	0.20364433	0.058493187	0.15219746
4583	45.82	0.44133899	0.065747948	0.15038867	0.25239491	0.91536633	0.13821259	0.19024243	0.95068781	0.18233034	0.042882492	0.96924182	0.021869146	0.15474602	0.96393121	-0.15731258	0.24627493	0.93202045	-0.12843718	0.46455817	1.2664286	0.0024351206	0.39903122	1.3278347	0.20861682	0.38426947	1.3430812	-0.17968704	0.43630975	1.1067678	0.00074965757	0.45555399	1.2308862	-0.10989899	0.43094055	0.48334155	0.1049212	0.41442529	0.5031442	0.20090942	0.39161203	0.69359497	0.16830351	0.30836853	0.10738582	0.11132057	0.28669208	0.099418472	0.20392203	0.37156042	0.35671539	0.22576849	0.2037139	0.058582066	0.15216464
4584	45.83	0.44132428	0.065734726	0.15052277	0.25610278	0.92034613	0.13852357	0.19379314	0.9550343	0.18262918	0.046705292	0.97376398	0.022225149	0.15815109	0.96829285	-0.15698062	0.24978535	0.93711707	-0.12807562	0.4651853	1.2739164	0.0026158054	0.39926273	1.3347451	0.2089019	0.38389594	1.3497662	-0.17939229	0.43832211	1.1139703	0.00093681258	0.45632669	1.238218	-0.10978393	0.42965988	0.48380548	0.10521073	0.41321838	0.50369418	0.20104066	0.39322873	0.69415375	0.16866158	0.30845578	0.10739802	0.11126816	0.28673145	0.099509575	0.2037856	0.37049304	0.35716537	0.22592542	0.20378633	0.058673126	0.1521311
4585	45.84	0.44131232	0.065694664	0.15063295	0.25986816	0.92524786	0.13886443	0.19723154	0.9592749	0.18294583	0.050532593	0.97818036	0.022588936	0.16155249	0.97255981	-0.1566286	0.25322827	0.94213031	-0.12766868	0.46576566	1.2812925	0.0027961533	0.39946872	1.3415363	0.20918839	0.3834686	1.3563242	-0.17908986	0.44028091	1.121075	0.0011236986	0.45704364	1.2454382	-0.10966771	0.42835532	0.48427563	0.10554204	0.41196008	0.50425018	0.20122005	0.39476968	0.69467261	0.16904605	0.30852878	0.10741114	0.11121649	0.28676187	0.099594734	0.20365236	0.36937634	0.35761902	0.22611063	0.20386099	0.058764153	0.15209595
4586	45.85	0.44130231	0.065639305	0.15072133	0.26368607	0.93006311	0.13923427	0.20059583	0.96340002	0.18328494	0.054360809	0.98248309	0.022961338	0.16495088	0.97672443	-0.15625807	0.25661151	0.94703851	-0.12721905	0.46629358	1.288557	0.0029770582	0.39963937	1.3482045	0.20947742	0.38297928	1.3627574	-0.17878044	0.44218439	1.1280817	0.0013095446	0.45770309	1.2525474	-0.10955052	0.42702597	0.4847478	0.10590637	0.41065225	0.50480576	0.20144002	0.39623044	0.69514569	0.16945386	0.30858514	0.10742349	0.11116689	0.2867825	0.099671738	0.20352477	0.36821393	0.35807397	0.22632002	0.20393701	0.058854336	0.15205869
4587	45.86	0.44129376	0.065579201	0.15079085	0.26755292	0.93478577	0.13963278	0.20394116	0.96740173	0.1836479	0.058186047	0.98666461	0.023343412	0.16834679	0.98077936	-0.1558717	0.25995618	0.95182208	-0.12673869	0.46676367	1.2957115	0.0031596024	0.39976328	1.3547467	0.20977019	0.3824216	1.3690677	-0.17846515	0.44403775	1.13499	0.0014948125	0.45830344	1.2595471	-0.10943208	0.42567093	0.48521869	0.10629216	0.40929794	0.5053544	0.20168939	0.3976181	0.69557043	0.16988062	0.30862247	0.10743361	0.11112057	0.28679269	0.099740448	0.20340379	0.36701428	0.35852893	0.22654744	0.2040135	0.058944431	0.15201988
4588	45.87	0.44128723	0.065521973	0.15084508	0.27146329	0.93941284	0.14005785	0.20731537	0.97127765	0.18403149	0.062003986	0.99071753	0.023736176	0.17174017	0.98471747	-0.15547174	0.26329477	0.95647119	-0.12624625	0.46717096	1.3027562	0.0033451905	0.39982858	1.3611595	0.2100681	0.38179218	1.3752555	-0.17814491	0.44584998	1.1417969	0.0016797955	0.45884433	1.2664381	-0.10931184	0.42429117	0.48568622	0.106686	0.40790335	0.50589258	0.20195547	0.3989494	0.69594812	0.17031979	0.30863907	0.1074403	0.11107815	0.2867923	0.09980246	0.20328903	0.36578894	0.35898349	0.22678447	0.20408971	0.059036678	0.15198102
4589	45.88	0.44128397	0.065472282	0.150888	0.27540872	0.94394281	0.14050519	0.21074159	0.97503094	0.1844294	0.065810387	0.99463422	0.024141645	0.17513055	0.98853326	-0.15505963	0.26665988	0.96098621	-0.12576061	0.4675116	1.3096896	0.0035351536	0.39982382	1.3674397	0.21037286	0.38108893	1.3813195	-0.17782047	0.44763034	1.1484979	0.0018632587	0.45932687	1.2732207	-0.109189	0.4228898	0.48614853	0.10707469	0.40647864	0.50642126	0.20222568	0.400241	0.69628229	0.17076242	0.30863354	0.10744274	0.1110399	0.28678134	0.099860008	0.2031799	0.36454938	0.35943781	0.22702142	0.20416508	0.059133705	0.15194377
4590	45.89	0.44128586	0.065432144	0.15092369	0.27938004	0.94837274	0.14096951	0.21422115	0.97866528	0.18483517	0.069602463	0.99840674	0.02456308	0.17851689	0.9922226	-0.15463742	0.27007028	0.96537183	-0.12529464	0.46778369	1.316507	0.0037300942	0.39973969	1.3735831	0.21068613	0.38031055	1.3872572	-0.177492	0.44938608	1.1550873	0.0020421858	0.45975336	1.2798928	-0.10906267	0.42147156	0.48660361	0.10744735	0.40503635	0.5069437	0.20248862	0.4015036	0.69657593	0.17119774	0.30860519	0.10744053	0.11100617	0.28676025	0.099914909	0.20307635	0.36330624	0.3598927	0.22724936	0.20423938	0.059236622	0.15190916
4591	45.9	0.44129474	0.065401031	0.15095569	0.28336963	0.95269678	0.1414455	0.217745	0.98218158	0.18524336	0.073379761	1.0020279	0.025002178	0.18189722	0.99578229	-0.15420839	0.27352744	0.96963153	-0.12485316	0.4679877	1.323202	0.0039299097	0.39956985	1.3795842	0.21100926	0.37945782	1.3930637	-0.17715948	0.45112253	1.1615574	0.0022126825	0.4601261	1.2864503	-0.10893293	0.42004388	0.48704938	0.10779556	0.40358923	0.50746262	0.20273567	0.40274252	0.69683215	0.17161552	0.30855457	0.10743356	0.1109772	0.28672983	0.09996846	0.20297861	0.36206998	0.36034915	0.22746176	0.20431296	0.059343914	0.15187679
4592	45.91	0.44131174	0.065376068	0.15098584	0.28737244	0.95690649	0.1419278	0.22130222	0.98557745	0.18564874	0.077144035	1.0054918	0.025456549	0.18526822	0.99920966	-0.15377644	0.27702179	0.97376599	-0.12443603	0.46812582	1.3297662	0.0041346531	0.39931161	1.3854366	0.21134309	0.37853348	1.398731	-0.17682309	0.45284232	1.1678998	0.0023711498	0.46044604	1.292886	-0.10880145	0.41861691	0.48748386	0.10811287	0.40215005	0.50797958	0.20296255	0.40395944	0.69705298	0.17200819	0.30848334	0.10742191	0.11095269	0.28669177	0.10002198	0.2028862	0.36085141	0.36080801	0.22765453	0.20438651	0.05945182	0.15184546
4593	45.92	0.4413371	0.065353111	0.1510136	0.29138535	0.96099164	0.14241071	0.22488449	0.98884711	0.18604634	0.080898422	1.008795	0.02592127	0.18862566	1.0025018	-0.15334549	0.28053986	0.9777738	-0.12404221	0.4682012	1.3361912	0.0043452249	0.39896469	1.391134	0.21168848	0.37754037	1.4042504	-0.17648338	0.45454547	1.1741053	0.0025152671	0.46071329	1.2991908	-0.10867034	0.41720288	0.48790576	0.10839539	0.40073206	0.50849576	0.20316829	0.4051539	0.69723895	0.1723723	0.30839429	0.10740547	0.11093171	0.28664844	0.10007684	0.2027977	0.35966122	0.36126886	0.22782478	0.20446039	0.059556374	0.15181381
4594	45.93	0.44137	0.065328461	0.15103719	0.29540628	0.96494147	0.14288882	0.22848737	0.99198254	0.18643279	0.084646622	1.011936	0.026391621	0.19196556	1.0056561	-0.15291884	0.28406808	0.98165295	-0.12367151	0.4682164	1.3424674	0.004563036	0.39853088	1.3966694	0.21204694	0.3764816	1.409613	-0.1761405	0.45622888	1.1801654	0.0026447709	0.46092688	1.3053535	-0.10854031	0.41581418	0.48831482	0.10864227	0.39934741	0.50901102	0.20335249	0.40632605	0.69738953	0.17270851	0.30829053	0.10738374	0.11091277	0.28660239	0.10013429	0.20271098	0.35850745	0.36172903	0.22797026	0.20453365	0.059655773	0.15178093
